<svg width="440" height="99" viewBox="0 0 440 99" fill="none" xmlns="http://www.w3.org/2000/svg">
<path d="M0.875 99V18.8125H13.1875V89.75H56.375V99H0.875ZM99.625 99V40.375H74.9375V31.125H111.938V99H99.625ZM98.0625 15.75V0.3125H113.5V15.75H98.0625ZM162.52 99C160.872 87.6491 157.829 76.9785 153.389 66.9883C151.204 62.0111 149.092 57.5531 147.051 53.6143C145.046 49.6755 143.112 46.1842 141.25 43.1406C142.324 42.9974 143.416 42.7467 144.526 42.3887C145.636 42.0306 146.675 41.6188 147.642 41.1533C148.644 40.6878 149.539 40.2044 150.327 39.7031C151.115 39.2018 151.742 38.7363 152.207 38.3066C152.959 43.4987 156.003 52.2715 161.338 64.625C166.709 77.0143 170.003 83.4238 171.221 83.8535C173.691 81.4544 176.663 76.0475 180.137 67.6328C184.577 56.9264 186.797 48.9414 186.797 43.6777V42.9795C191.094 41.9053 194.066 40.3656 195.713 38.3604C193.6 43.6956 191.738 48.3864 190.127 52.4326C188.516 56.443 187.101 59.9701 185.884 63.0137C184.666 66.0215 183.61 68.6354 182.715 70.8555C181.82 73.0397 181.032 74.9554 180.352 76.6025C179.671 78.2139 179.08 79.6462 178.579 80.8994C178.078 82.1527 177.612 83.3522 177.183 84.498C176.753 85.6439 176.323 86.8076 175.894 87.9893C175.464 89.1709 174.98 90.5316 174.443 92.0713C174.3 92.4652 174.229 93.1276 174.229 94.0586C170.075 94.7747 166.279 96.3503 162.842 98.7852L162.52 99ZM203.77 99C204.45 93.5931 204.951 88.6875 205.273 84.2832C205.632 79.8431 205.811 75.8327 205.811 72.252C205.811 69.3516 205.775 66.6481 205.703 64.1416C205.667 61.5993 205.578 59.2002 205.435 56.9443C205.291 54.6527 205.094 52.4505 204.844 50.3379C204.629 48.2253 204.36 46.0947 204.038 43.9463L203.77 43.0869C205.954 42.8363 208.12 42.335 210.269 41.583C212.453 40.7952 214.673 39.7747 216.929 38.5215L217.305 38.3066C216.947 39.3451 216.571 40.4909 216.177 41.7441C215.783 42.9616 215.389 44.2507 214.995 45.6113L226.758 38.3066C228.19 38.7005 229.963 39.3988 232.075 40.4014C234.224 41.3682 236.39 42.6572 238.574 44.2686C240.758 45.8441 242.799 47.724 244.697 49.9082C246.631 52.0566 248.081 54.4915 249.048 57.2129L239.326 61.1875C237.858 58.502 236.175 56.2461 234.277 54.4199C232.38 52.5579 230.428 51.054 228.423 49.9082C226.418 48.7266 224.448 47.8851 222.515 47.3838C220.581 46.8467 218.844 46.5781 217.305 46.5781C216.553 46.5781 215.801 46.6318 215.049 46.7393H214.995C214.852 48.0641 214.744 50.1768 214.673 53.0771C214.637 55.9417 214.619 59.6299 214.619 64.1416V66.0215C214.619 76.0833 215.371 84.7845 216.875 92.125L217.305 94.0586C215.908 94.2376 214.53 94.5062 213.169 94.8643C211.808 95.2223 210.519 95.652 209.302 96.1533C208.12 96.6188 207.046 97.1022 206.079 97.6035C205.112 98.1048 204.342 98.5703 203.77 99ZM253.022 53.8828C253.953 51.7344 255.529 49.765 257.749 47.9746L260.273 45.9336L272.52 38.3066C274.561 38.8438 277.085 39.8822 280.093 41.4219C282.957 42.89 285.643 44.8415 288.149 47.2764C291.3 50.3558 293.521 53.668 294.81 57.2129C296.206 60.6504 296.958 64.4102 297.065 68.4922C297.316 78.6615 297.979 86.5391 299.053 92.125L299.482 94.0586C297.048 94.3451 294.863 94.8464 292.93 95.5625C289.814 96.7083 287.487 97.8542 285.947 99C287.308 89.332 287.988 79.7178 287.988 70.1572C287.988 69.6917 287.988 69.2083 287.988 68.707C287.988 64.625 287.344 61.5098 286.055 59.3613C283.799 56.0312 280.684 53.4352 276.709 51.5732C273.128 49.8903 267.829 48.279 260.811 46.7393C260.238 47.6344 259.951 49.1921 259.951 51.4121C259.951 52.8086 260.184 54.6348 260.649 56.8906L253.022 53.8828ZM274.614 99C272.573 98.2839 269.333 96.7799 264.893 94.4883C261.562 92.7695 258.34 90.1914 255.225 86.7539C252.933 83.1732 251.787 79.861 251.787 76.8174C251.787 76.7458 251.787 76.6562 251.787 76.5488C252.324 72.2161 254.329 68.707 257.803 66.0215C263.675 61.5098 271.034 59.2181 279.878 59.1465C268.957 63.1569 262.637 67.6328 260.918 72.5742C260.56 73.6126 260.381 74.6152 260.381 75.582C260.381 77.2292 260.954 78.6973 262.1 79.9863C265.179 83.1016 267.775 85.1784 269.888 86.2168C276.369 89.4036 281.704 91.194 285.894 91.5879L274.614 99ZM312.91 99C313.59 93.5931 314.092 88.6875 314.414 84.2832C314.772 79.8431 314.951 75.8327 314.951 72.252C314.951 69.3516 314.915 66.6481 314.844 64.1416C314.808 61.5993 314.718 59.2002 314.575 56.9443C314.432 54.6527 314.235 52.4505 313.984 50.3379C313.77 48.2253 313.501 46.0947 313.179 43.9463L312.91 43.0869C315.094 42.8363 317.261 42.335 319.409 41.583C321.593 40.7952 323.813 39.7747 326.069 38.5215L326.445 38.3066C326.087 39.3451 325.711 40.4909 325.317 41.7441C324.924 42.9616 324.53 44.2507 324.136 45.6113L335.898 38.3066C337.331 38.7005 339.103 39.3988 341.216 40.4014C343.364 41.3682 345.531 42.6572 347.715 44.2686C349.899 45.8441 351.94 47.724 353.838 49.9082C355.771 52.0566 357.222 54.4915 358.188 57.2129L348.467 61.1875C346.999 58.502 345.316 56.2461 343.418 54.4199C341.52 52.5579 339.569 51.054 337.563 49.9082C335.558 48.7266 333.589 47.8851 331.655 47.3838C329.722 46.8467 327.985 46.5781 326.445 46.5781C325.693 46.5781 324.941 46.6318 324.189 46.7393H324.136C323.993 48.0641 323.885 50.1768 323.813 53.0771C323.778 55.9417 323.76 59.6299 323.76 64.1416V66.0215C323.76 76.0833 324.512 84.7845 326.016 92.125L326.445 94.0586C325.049 94.2376 323.67 94.5062 322.31 94.8643C320.949 95.2223 319.66 95.652 318.442 96.1533C317.261 96.6188 316.187 97.1022 315.22 97.6035C314.253 98.1048 313.483 98.5703 312.91 99ZM363.613 35.4062C364.294 32.4701 364.634 29.3906 364.634 26.168C364.634 25.2012 364.598 24.2344 364.526 23.2676C364.491 22.3008 364.401 21.334 364.258 20.3672L363.936 19.2393C368.555 18.7738 373.228 17.1803 377.954 14.459L378.33 14.2441C377.757 16.2852 377.471 19.2035 377.471 22.999C377.471 24.0016 377.507 25.1117 377.578 26.3291C377.686 27.5107 377.829 28.8177 378.008 30.25C376.54 30.429 375.072 30.7155 373.604 31.1094C372.171 31.4674 370.811 31.8971 369.521 32.3984C368.268 32.8639 367.122 33.3652 366.084 33.9023C365.081 34.4395 364.258 34.9408 363.613 35.4062ZM364.526 99C365.207 93.5931 365.708 88.6875 366.03 84.2832C366.388 79.8431 366.567 75.8327 366.567 72.252C366.567 69.3516 366.532 66.6481 366.46 64.1416C366.424 61.5993 366.335 59.2002 366.191 56.9443C366.048 54.6527 365.851 52.4505 365.601 50.3379C365.386 48.2253 365.117 46.0947 364.795 43.9463L364.526 43.0869C366.711 42.8363 368.877 42.335 371.025 41.583C373.21 40.7952 375.43 39.7747 377.686 38.5215L378.062 38.3066C376.271 44.5013 375.376 53.113 375.376 64.1416V66.0215C375.376 76.0833 376.128 84.7845 377.632 92.125L378.062 94.0586C376.522 94.2376 375.054 94.5241 373.657 94.918C372.297 95.276 371.025 95.6878 369.844 96.1533C368.698 96.6188 367.66 97.1022 366.729 97.6035C365.833 98.1048 365.099 98.5703 364.526 99ZM392.993 53.8828C393.924 51.7344 395.5 49.765 397.72 47.9746L400.244 45.9336L412.49 38.3066C414.531 38.8438 417.056 39.8822 420.063 41.4219C422.928 42.89 425.614 44.8415 428.12 47.2764C431.271 50.3558 433.491 53.668 434.78 57.2129C436.177 60.6504 436.929 64.4102 437.036 68.4922C437.287 78.6615 437.949 86.5391 439.023 92.125L439.453 94.0586C437.018 94.3451 434.834 94.8464 432.9 95.5625C429.785 96.7083 427.458 97.8542 425.918 99C427.279 89.332 427.959 79.7178 427.959 70.1572C427.959 69.6917 427.959 69.2083 427.959 68.707C427.959 64.625 427.314 61.5098 426.025 59.3613C423.77 56.0312 420.654 53.4352 416.68 51.5732C413.099 49.8903 407.799 48.279 400.781 46.7393C400.208 47.6344 399.922 49.1921 399.922 51.4121C399.922 52.8086 400.155 54.6348 400.62 56.8906L392.993 53.8828ZM414.585 99C412.544 98.2839 409.303 96.7799 404.863 94.4883C401.533 92.7695 398.311 90.1914 395.195 86.7539C392.904 83.1732 391.758 79.861 391.758 76.8174C391.758 76.7458 391.758 76.6562 391.758 76.5488C392.295 72.2161 394.3 68.707 397.773 66.0215C403.646 61.5098 411.004 59.2181 419.849 59.1465C408.927 63.1569 402.607 67.6328 400.889 72.5742C400.531 73.6126 400.352 74.6152 400.352 75.582C400.352 77.2292 400.924 78.6973 402.07 79.9863C405.15 83.1016 407.746 85.1784 409.858 86.2168C416.34 89.4036 421.675 91.194 425.864 91.5879L414.585 99Z" fill="black"/>
</svg>
